<svg id="svg" xmlns="http://www.w3.org/2000/svg" viewBox="0 0 293.78 298.1"><defs><style>.cls-1{fill:#008aff;}.cls-1,.cls-2{fill-rule:evenodd;}.cls-2{fill:#050505;}.cls-3{fill:#05f;}.cls-4{fill:#0013ff;}.cls-5{fill:#fff;}.cls-6{fill:#00966e;stroke:#00966e;stroke-linejoin:round;}.cls-6,.cls-7{stroke-width:4px;}.cls-7{fill:#d62612;stroke:#d62612;stroke-miterlimit:10;}</style></defs><path class="cls-1" d="M354.8,174c0,82.3-65.9,149-147.3,149-195.3-7.8-195.3-290.3,0-298.1C288.9,24.9,354.8,91.7,354.8,174Z" transform="translate(-61.02 -24.9)"/><path class="cls-2" d="M150.2,86.77c40.2,1.6,10.5,47.2-13.2,37.5-15.3-13.3,5.4-9.1,1.3-26,.7-4.1.5-5.4-.7-4.8-4.4,12.1-16.2-12.2,12.6-6.7" transform="translate(-61.02 -24.9)"/><path class="cls-1" d="M146.2,93.67c-5.3-.1,2.5,33.7-6,20.2-1.3-3.3-2.3-1.1-3.5.5,18.6,18.8,50.7-26.5,9.5-20.7" transform="translate(-61.02 -24.9)"/><path class="cls-2" d="M190.1,94.77c4.2.6,4.6.8,7.4,3.7,9.7,9.1-10.5,3.9-3.3,11.5,18.3,16-10.1,22.4.7,10.3,3.2-5.4-15.3-13.5-4.2-20.3,6.4-4.4-8.4-1.7-6.1.8-5.9,7.9-16.7-11,5.5-6" transform="translate(-61.02 -24.9)"/><path class="cls-2" d="M214.1,98.37c9.8,2.2.6,19.6-2.3,6.7-2.5-6.3-6.6,10.4-4.4,13.4,10.3,7.3,14.8-27.4,25.4-13.8,9.9,7.3-4.9,28.8-11.8,15.1.3-3.1-4.1,1.1-5.8,2.3-17.4,12.8-13.7-29.2-1.1-23.7m57.1.8c2.9,11.8-18.7,23.5,4.3,20.1-16.1,19.7-26.4-23.5-4.3-20.1m10.1,2.1c15,6.3-5.9,27.1,10.2,13.3,10.9-9.8-1.7,12.5-7.7,10.9-11.2-2.1.5-13.6-.8-17.9-7.5,14.4-8.1-14.2-1.7-6.3m-28.4.7c6.6,2.7-4.2,24.8-5.3,22.5-5.8-2.1-12.4-20.2-5.1-20.6,2.5,1,1,11,2.9,14,4.3-3.9,2.6-16.1,7.5-15.9m-71.9,4.8c.9,4.2-10.5,19.1,4.5,11.5,5,4.5-11,9.4-11.9,1.6-3.2-4.1.6-17.6,7.4-13.1" transform="translate(-61.02 -24.9)"/><path class="cls-1" d="M228.1,108.07c0,2.3-4.8,9-2.4,11,4.5,1.6,5.5-13.5,2.4-11" transform="translate(-61.02 -24.9)"/><path class="cls-2" d="M127.9,140.17c9.1,2,24.3,6.9,19.2,16,18,5.8,17.5,24.2-2.4,27.9-9,2.6-22.1,8.8-20.1-6.6-.3-2-7.2-32.9,1.7-31.3-6-.2-1.7-8.2,1.6-6" transform="translate(-61.02 -24.9)"/><path class="cls-2" d="M200.4,147.07c11.2,5.2-10.1,19.6-9.5,28,.8,20.1,36.8-38.5,30.2-9.3-2.7,14.1,7.1-6.7,13-5.1,16.3-5.4-3.3,15.6,3.9,18.1,13.3-.7,7.5-24.6,13.5-19.2,13.9,3.3-2.9,27.7,10,14.7,4.8-4.3.6-9.6,9.4-9.1,1.6.1,2,4,.3,4-9.4,15.2,8,10.7,9.4-1.8,4.1-5.6,1.1-7.1,12.1-7,6.7,0-6.3,12.6-1.9,17.7,2.5,6,15.6-19.2,11.7-3.6-3.7,11-13,11.9-16.5,3.6-5.1,6.4-6.3-.1-10.3,2.8-4.4,4.4-8.5,2.6-12.1-2.7-15.8,15.7-13.2-3.4-10.1-12.1-3.9,4.9-10,25.9-19.5,14.4-1.7-6-7.4,4.9-8.7-.5-3.2-2.4.2-9-3.5-3.3-1.9,1.1-1,9.3-1.2,11.1,2.3,33.6-21.1,8.7-7.5-4.5,4-9.2-6.1,8.2-9.1-2.4-3.2-.6-15,10.2-16.9-2.7.1-1.1-1.2.2-1.6.5-3.1,4.4-10.1.7-12.1-2.3-6.8,19-13.5-11-6.8-13.5,4.7-3.2,2.1,10.3,3.2,11.4,2.9-2.6,2.6-11.5,8.8-9.8,2.9,34.5,11.9-21.9,21.8-17.4" transform="translate(-61.02 -24.9)"/><path class="cls-1" d="M128,147.87c-.7,7.8,17,4.4,14.1,2.2-3.2.1-15.4-5.4-14.1-2.2" transform="translate(-61.02 -24.9)"/><path class="cls-2" d="M281,153.57c5.5.2,7.8,3.2.4,3.4-11.4-.8-1.7,6.4-9.6,4.4-10.8-4.5-.9-10.7,9.2-7.8" transform="translate(-61.02 -24.9)"/><path class="cls-1" d="M136.1,159.37c-8.3.3-11.6-.6-9.2,9.6-.8,7.3,4.6-2.4,4,2.8-2.7,29.1,52.1-11.5,5.2-12.4m76.4,6.6c-3,3.3-4.6,10.6-4.6,14,3.8-.3,12.4-17.2,4.6-14m18.6,3.6c-.8,1-2.7,4.5-2.1,4.7.7-.5,5.1-5.8,2.1-4.7m52.8,1c-.8,1.8-1.1,1.7-1.6,3.1.6,2.4,5.6-8,1.6-3.1m-68,17c-1.4.9-2.2,8.4-.6,9.1,1.4,1.9.6-9,.6-9.1" transform="translate(-61.02 -24.9)"/><path class="cls-3" d="M195.35,36.1C149.45,40.9,111,66,88,105.9c-7.6,13.3-13.5,30.9-16.2,48.2-1.4,9.1-1.4,28.6,0,37.6,4.6,29.8,16.9,55.1,37.1,76.3,21.2,22.1,48.7,36.2,80.2,41.1,9.1,1.4,28.6,1.4,37.7,0,31-4.7,56.6-17.6,78.2-39.1s34.4-47.2,39.1-78.2c1.4-9.1,1.4-28.6,0-37.7a145.37,145.37,0,0,0-15.9-47.6,137.93,137.93,0,0,0-100.8-69.6C220.25,35.8,202.15,35.4,195.35,36.1Zm31.7,11.1c64,10,110.4,66.1,107.9,130.3a116.37,116.37,0,0,1-3.8,26.9c-6.3,25.2-21.4,49.3-41.2,65.6a127.71,127.71,0,0,1-63.5,28.8c-8.7,1.4-28.4,1.4-37.1,0A127.27,127.27,0,0,1,82.15,154.2c.3-2.3.8-4.6,1.2-6.9A127.86,127.86,0,0,1,193,46.6C200.65,45.6,219.15,45.9,227.05,47.2Z" transform="translate(-61.02 -24.9)"/><path class="cls-4" d="M196.65,45.8c-42.6,4.5-78.5,27.8-99.8,64.9-7.1,12.3-12.6,28.7-15,44.8-1.3,8.4-1.3,26.5,0,35,4.2,27.7,15.7,51.2,34.5,70.8,19.7,20.6,45.2,33.6,74.5,38.1,8.4,1.3,26.5,1.3,35,0,28.8-4.3,52.6-16.3,72.6-36.3s32-43.9,36.4-72.6c1.3-8.4,1.3-26.5,0-35A134.13,134.13,0,0,0,320,111.2a128,128,0,0,0-93.7-64.6C219.65,45.6,202.85,45.2,196.65,45.8Zm29.4,10.3c59.4,9.3,102.5,61.4,100.2,121.1a106.27,106.27,0,0,1-3.6,25c-5.9,23.4-19.9,45.8-38.3,61a119,119,0,0,1-59,26.8c-8.1,1.3-26.4,1.3-34.4,0a118.2,118.2,0,0,1-99.5-134.3c.3-2.2.7-4.3,1.2-6.5a118.84,118.84,0,0,1,101.7-93.6c7.2-.9,24.3-.6,31.7.5Z" transform="translate(-61.02 -24.9)"/><path id="rect4" class="cls-5" d="M168.53,207.64h0l-.64.88a2.47,2.47,0,0,0-.58,1.72c0,.78-.07.94-.4,1a.89.89,0,0,0-.59.49c-.14.32-.42.46-1.11.56a2.48,2.48,0,0,0-1.23.46,4.48,4.48,0,0,0-.39,1.89,5.54,5.54,0,0,1-.32,1.77c-.29.29-.27.72.08,1.39a2.65,2.65,0,0,1,.3.91,3.15,3.15,0,0,0,1.05,2c.4.26.49.52.58,1.76.15,1.85.44,2.65,1.1,3a7.44,7.44,0,0,1,2.09,1.37,2.21,2.21,0,0,0,.81.54c.34,0,1.49,1.67,1.49,2.16,0,.23.13.41.3.41a.3.3,0,0,1,.29.3.52.52,0,0,0,.35.43.75.75,0,0,1,.18.09H258a2.26,2.26,0,0,1,.58-.92,3.62,3.62,0,0,0,.77-1.24c.52-2.27,1.15-3.21,2.18-3.21.35,0,.69-.07.74-.16a4.4,4.4,0,0,1,2.76,0c.54.35,1.32.55,1.32.34a1.8,1.8,0,0,1,.5-.62,4,4,0,0,0,1.25-3.68,11.21,11.21,0,0,1-.37-3.48l0-1-1.14.06a3.94,3.94,0,0,1-1.36-.07,16.53,16.53,0,0,0-2.37-.36,9.45,9.45,0,0,1-2.47-.48,5,5,0,0,0-2-.9c-.25,0-.41-.27-.58-1-.45-1.91-.76-2.49-1.41-2.63a1,1,0,0,0-1,.26,2.89,2.89,0,0,1-2.18.52.6.6,0,0,1-.32-.54,1.7,1.7,0,0,0-1.19-1.32,1.14,1.14,0,0,0-.67.37c-.29.32-.6.37-1.91.34-1.49,0-1.6-.07-2.26-.71a2.07,2.07,0,0,1-.7-1.14c0-.56-.51-.79-1-.46a4.58,4.58,0,0,1-2.87-.23.89.89,0,0,0-.89,0,6.77,6.77,0,0,1-1.6.32,3.23,3.23,0,0,0-1.5.41,1.14,1.14,0,0,1-.54.3,1.13,1.13,0,0,0-.54.38,2.38,2.38,0,0,1-1.32.48,4.68,4.68,0,0,0-1.22.26,3.54,3.54,0,0,1-1.16.16,2.08,2.08,0,0,0-1.34.38,1.08,1.08,0,0,1-1.1.24,2,2,0,0,0-1,.06,6.34,6.34,0,0,1-2.06.81.67.67,0,0,0-.48.2.57.57,0,0,1-.46.2,2.81,2.81,0,0,0-1.12.79,2.93,2.93,0,0,1-1,.79.48.48,0,0,0-.38.35c-.11.33-.47.73-2.6,2.93a15.2,15.2,0,0,0-1.15,1.29,2.17,2.17,0,0,1-1.36.77,6.66,6.66,0,0,0-1.43.53,7.24,7.24,0,0,1-2,.58,2.88,2.88,0,0,0-1.09.25,2.59,2.59,0,0,1-.76.3c-.43.1-.69,0-1.41-.64-1-.82-2.53-1.27-3-.84s-.86.25-1.51-.3a1.33,1.33,0,0,0-1.35-.39c-.41.07-1.48.17-2.38.21a4,4,0,0,1-2.81-.48,11.34,11.34,0,0,0-1.05-.52,1.63,1.63,0,0,0-1.53-.08,3.18,3.18,0,0,0-1.11.62,1.12,1.12,0,0,1-.66.37.81.81,0,0,0-.48.14,5.83,5.83,0,0,1-1.56.37c-1.11.17-1.51.16-1.91-.05a5.45,5.45,0,0,0-1.2-.39,2.66,2.66,0,0,1-1-.37,3.07,3.07,0,0,0-1.14-.37,16,16,0,0,1-3.83-1.27c-.52-.3-.75-.26-1.39.19-.36.26-.94.06-1.92-.67a1.91,1.91,0,0,0-.93-.35.81.81,0,0,1-.56-.16,8.61,8.61,0,0,0-3.2,0,.86.86,0,0,1-.51.15,2,2,0,0,0-.71.17c-1.49.76-2.5.88-3.36.4a2.79,2.79,0,0,0-1-.38c-.8,0-1-.42-.9-1.61.1-.88.21-1.14.51-1.22a.78.78,0,0,0,.49-.51.54.54,0,0,1,.56-.41,1.64,1.64,0,0,0,1.48-1.33,1.22,1.22,0,0,0-1.38-1.24,1.43,1.43,0,0,1-1.09-.4,1.2,1.2,0,0,0-.55-.4,3.35,3.35,0,0,1-1-.69,2.71,2.71,0,0,0-1.1-.69,1.29,1.29,0,0,1-.69-.33,1,1,0,0,0-.4-.26Z" transform="translate(-61.02 -24.9)"/><path id="rect6" class="cls-6" d="M171.83,230.77a6.28,6.28,0,0,1,.86.55c.6.44.65.56.53,1.18-.15.85-.5,1.44-.84,1.44a.51.51,0,0,0-.39.33,4.34,4.34,0,0,1-.88,1c-.6.53-.76.83-.76,1.36a1.49,1.49,0,0,1-.64,1.25c-.73.67-1.79,1-2.21.61-.69-.58-3.48,1-3.48,2a3.4,3.4,0,0,0,.44,1.13c.43.74.43.77.08,1.17a.89.89,0,0,0-.24.89,3.77,3.77,0,0,1-.12,1.39L164,246l.94,1c.66.71.89,1.08.75,1.25a3,3,0,0,0-.33.89,1.69,1.69,0,0,1-.61,1c-.27.17-.48.43-.48.56s-.34.31-.77.37a2,2,0,0,0-1,.43c-.22.25-.17.39.27.85a2.28,2.28,0,0,1,.52.72,4.09,4.09,0,0,0,.7.91h93.39c-2-2.06-2-2.27-1.62-2.84s.29-.49,0-.77a2.79,2.79,0,0,0-.68-.41c-.22-.08-.33-.33-.32-.69,0-.77-.4-1.55-.69-1.26s-.61.3-.45,0c.37-.6-1.94-1-2.4-.42s-.56.07-.27-.48A1.92,1.92,0,0,0,251,246c-.11-.55-.08-.58.67-.69,1-.13,1.37-.44,1.37-1.25,0-.42.09-.66.25-.66a3.79,3.79,0,0,0,1-.37c.59-.29.68-.39.42-.49a.44.44,0,0,1-.27-.48c.05-.29.29-.35,1.45-.35h1.38l0-.89a6.48,6.48,0,0,0-.17-1.54,2,2,0,0,1,0-1,8,8,0,0,0,0-3c-.1-.57-.07-.94.1-1.14a6.27,6.27,0,0,0,.65-2.8,2.47,2.47,0,0,1,.1-.65Z" transform="translate(-61.02 -24.9)"/><path id="rect8" class="cls-7" d="M163.91,253.92l.11.12a3,3,0,0,1,.79,1.22c0,.62,1.1,1.53,2.91,2.42a3.27,3.27,0,0,1,.95.6,1,1,0,0,0,.67.19,3,3,0,0,1,1.07.25c.49.22.53.34.54,1.37a2.56,2.56,0,0,0,.19,1.25.73.73,0,0,1,.2.56,1.17,1.17,0,0,0,.4.77,1.22,1.22,0,0,1,.39.8c0,.66.45,1.52.8,1.52a.84.84,0,0,1,.55.42c.24.37.18.51-.54,1.37-.86,1-1.06,1.92-.51,2.37.19.16.23.34.13.47a4.19,4.19,0,0,0,0,2.43c.12.15.11.28,0,.36a1,1,0,0,0-.21.68,1.22,1.22,0,0,1-.29.81c-.36.3-.4,1.16-.06,1.28a23,23,0,0,0,2.45.18c2.41.09,3.1-.09,3.21-.82a1.24,1.24,0,0,1,.49-.74c.39-.27.43-.26.57.1.25.67.74.7,1.29.1a1.08,1.08,0,0,1,1.21-.43,1.49,1.49,0,0,0,1-.09c.19-.15.41-.1.84.2.77.55,1.72.55,2,0,.19-.36.34-.4,1.09-.28s.9.07,1.12-.28a.89.89,0,0,1,.62-.41,2,2,0,0,0,.92-.39c.47-.34.57-.35.67-.1.16.43,1.06.36,1.31-.1s.27-.35.57-.17a.91.91,0,0,0,.71.1c.29-.11.33-.3.25-1l-.1-.89h.94a1.75,1.75,0,0,0,1.19-.29,1.1,1.1,0,0,1,.76-.3c.45,0,.48,0,.18.21s-.44.74,0,1.21.86.45,1.73-.27c.67-.56.78-.59.94-.3a.91.91,0,0,0,1.39,0c.29-.27.41-.28.66-.08a.84.84,0,0,1,.3.5,1.17,1.17,0,0,0,.41.61,2.77,2.77,0,0,1,.6.84c.09.26.26.4.39.32.3-.19,1.1.26,2.23,1.25a5.25,5.25,0,0,0,1.13.84c.1,0,.18-.3.18-.67,0-.66,0-.66.84-.63a3.41,3.41,0,0,1,1.24.25,5,5,0,0,0,1.13.36,2.11,2.11,0,0,1,1,.41.89.89,0,0,0,.58.28,5.45,5.45,0,0,1,1.6,1.17l1.27,1.18,1.09-.11a3.57,3.57,0,0,0,1.27-.29.92.92,0,0,1,.52-.17.87.87,0,0,0,.58-.3,1.16,1.16,0,0,1,.79-.29c.3,0,.6-.12.65-.26.11-.29,1.94-.32,2.57-.05a.66.66,0,0,0,.71-.16,1.31,1.31,0,0,1,.52-.33,1.68,1.68,0,0,0,.63-.42l.46-.44.59.56c.57.55.61.56,1.43.3a4.4,4.4,0,0,0,1.18-.54,1,1,0,0,1,.92-.15c.34.07.64,0,.72-.09a.65.65,0,0,1,.5-.2c.28,0,.41-.19.5-.75a5.42,5.42,0,0,1,.34-1.18.6.6,0,0,0-.13-.82c-.25-.27-.27-.42-.11-.52s.2-.46-.12-2a3.44,3.44,0,0,0-.9-1.38c-.8-.78-1-1.66-.45-1.66a1.77,1.77,0,0,0,.81-.4,1.42,1.42,0,0,1,1.85.13,1.73,1.73,0,0,0,.95.27c.62,0,.62,0,.62-1,0-1.49.48-1.94,2.05-1.94s1.91-.32,1.91-1.55a1.71,1.71,0,0,1,.5-1.42c.45-.47.62-.52,1.48-.44a2,2,0,0,0,1.3-.16,3,3,0,0,1,1.3-.31c1.57-.08,3-.95,3.17-2,.07-.36.21-.38,1.62-.32,1.23,0,1.61,0,1.9-.27a.8.8,0,0,1,.83-.19c.68.21,1.55.87,1.55,1.18a5.83,5.83,0,0,0,2.06,1.88c.12,0,.33.18.46.39.28.45,1.14.54,1.29.14a1.87,1.87,0,0,1,.92-.52,2.87,2.87,0,0,0,1-.54.77.77,0,0,1,1.17,0c.36.44.77.35,1-.21s.72-.81,1.16-.41a1.77,1.77,0,0,0,2.09-.06c.32-.35.32-.42,0-1a8.72,8.72,0,0,0-1.25-1.59l-1.52-1.58H163.91Z" transform="translate(-61.02 -24.9)"/></svg>