<svg id="Layer_1" data-name="Layer 1" xmlns="http://www.w3.org/2000/svg" viewBox="0 0 940.52 954.37"><defs><style>.cls-1{fill:#008aff;}.cls-1,.cls-2{fill-rule:evenodd;}.cls-2{fill:#050505;}.cls-3{fill:#05f;}.cls-4{fill:#0013ff;}.cls-5{fill:#fff;}.cls-6{fill:#00966e;stroke:#00966e;stroke-linejoin:round;}.cls-6,.cls-7{stroke-width:4px;}.cls-7{fill:#d62612;stroke:#d62612;stroke-miterlimit:10;}</style></defs><path class="cls-1" d="M970.26,500.16c0,263.48-211,477-471.58,477-625.25-25-625.25-929.39,0-954.36C759.28,22.82,970.26,236.68,970.26,500.16Z" transform="translate(-29.74 -22.82)"/><path class="cls-2" d="M315.23,220.88C443.93,226,348.85,372,273,340.94c-49-42.58,17.29-29.13,4.17-83.24,2.24-13.12,1.6-17.29-2.25-15.37-14.08,38.74-51.86-39.05,40.34-21.45" transform="translate(-29.74 -22.82)"/><path class="cls-1" d="M302.43,243c-17-.32,8,107.9-19.21,64.68-4.16-10.57-7.36-3.53-11.21,1.6,59.55,60.18,162.32-84.84,30.42-66.28" transform="translate(-29.74 -22.82)"/><path class="cls-2" d="M443,246.5c13.45,1.92,14.73,2.56,23.69,11.84,31.06,29.14-33.61,12.49-10.56,36.82,58.59,51.22-32.34,71.71,2.24,33,10.25-17.28-49-43.22-13.45-65,20.49-14.08-26.89-5.44-19.52,2.57C406.48,291,371.9,230.49,443,246.5" transform="translate(-29.74 -22.82)"/><path class="cls-2" d="M519.81,258c31.37,7.05,1.92,62.75-7.36,21.45-8-20.17-21.13,33.3-14.09,42.9,33,23.37,47.38-87.72,81.32-44.18,31.69,23.37-15.69,92.2-37.78,48.34,1-9.92-13.13,3.53-18.57,7.37-55.71,41-43.86-93.49-3.52-75.88m182.8,2.56c9.29,37.78-59.86,75.24,13.77,64.35-51.54,63.07-84.52-75.23-13.77-64.35M735,267.31c48,20.17-18.89,86.76,32.66,42.58,34.89-31.38-5.45,40-24.66,34.89-35.85-6.72,1.6-43.54-2.56-57.3-24,46.1-25.93-45.47-5.44-20.17M644,269.55c21.13,8.64-13.45,79.39-17,72-18.57-6.72-39.7-64.67-16.33-65.95,8,3.2,3.2,35.22,9.29,44.82,13.76-12.48,8.32-51.54,24-50.9M413.84,284.91c2.88,13.45-33.62,61.15,14.41,36.82,16,14.41-35.22,30.1-38.1,5.12-10.25-13.12,1.92-56.34,23.69-41.94" transform="translate(-29.74 -22.82)"/><path class="cls-1" d="M564.63,289.08c0,7.36-15.37,28.81-7.68,35.21,14.4,5.13,17.6-43.22,7.68-35.21" transform="translate(-29.74 -22.82)"/><path class="cls-2" d="M243.84,391.84c29.13,6.41,77.8,22.09,61.47,51.23,57.63,18.57,56,77.47-7.68,89.32-28.82,8.32-70.76,28.17-64.35-21.13-1-6.4-23.06-105.33,5.44-100.21-19.21-.64-5.44-26.25,5.12-19.21" transform="translate(-29.74 -22.82)"/><path class="cls-2" d="M476,413.93c35.86,16.65-32.34,62.75-30.42,89.65,2.57,64.35,117.82-123.26,96.69-29.78-8.64,45.14,22.73-21.45,41.62-16.32,52.18-17.29-10.57,49.94,12.49,57.94,42.57-2.24,24-78.75,43.22-61.47,44.5,10.57-9.29,88.68,32,47.07,15.37-13.77,1.92-30.74,30.09-29.14,5.13.32,6.41,12.81,1,12.81-30.09,48.66,25.62,34.25,30.1-5.76,13.12-17.93,3.52-22.74,38.74-22.42,21.45,0-20.17,40.34-6.09,56.67,8,19.21,49.95-61.47,37.46-11.52C791,536.87,761.2,539.75,750,513.18c-16.33,20.49-20.17-.32-33,9-14.09,14.08-27.21,8.32-38.74-8.65C627.7,563.76,636,502.62,646,474.76c-12.49,15.69-32,82.92-62.43,46.1-5.44-19.2-23.69,15.69-27.85-1.6-10.25-7.68.64-28.81-11.21-10.56-6.08,3.52-3.2,29.77-3.84,35.54,7.36,107.57-67.55,27.85-24-14.41,12.8-29.45-19.53,26.25-29.14-7.68-10.24-1.93-48,32.65-54.1-8.65.32-3.52-3.84.64-5.12,1.6-9.93,14.09-32.34,2.24-38.74-7.36-21.77,60.83-43.22-35.22-21.77-43.22,15.05-10.25,6.72,33,10.24,36.5,9.29-8.33,8.33-36.82,28.18-31.38,9.28,110.45,38.09-70.11,69.79-55.71" transform="translate(-29.74 -22.82)"/><path class="cls-1" d="M244.16,416.5c-2.24,25,54.43,14.08,45.14,7-10.24.32-49.3-17.29-45.14-7" transform="translate(-29.74 -22.82)"/><path class="cls-2" d="M734,434.74c17.61.64,25,10.25,1.28,10.89-36.5-2.56-5.44,20.49-30.73,14.09-34.58-14.41-2.89-34.26,29.45-25" transform="translate(-29.74 -22.82)"/><path class="cls-1" d="M270.09,453.31c-26.57,1-37.13-1.92-29.45,30.74-2.56,23.37,14.73-7.69,12.8,9-8.64,93.17,166.8-36.82,16.65-39.7m244.6,21.13C505.08,485,500,508.38,500,519.26c12.17-1,39.7-55.06,14.73-44.82M574.23,486c-2.56,3.2-8.64,14.41-6.72,15,2.24-1.61,16.33-18.57,6.72-15m169,3.2c-2.56,5.76-3.52,5.44-5.12,9.92,1.92,7.69,17.93-25.61,5.12-9.92M525.57,543.6c-4.48,2.88-7,26.89-1.92,29.13,4.48,6.08,1.92-28.81,1.92-29.13" transform="translate(-29.74 -22.82)"/><path class="cls-3" d="M459.78,58.67C312.83,74,189.57,154.4,115.94,282.14c-24.33,42.58-43.22,98.92-51.86,154.31-4.49,29.13-4.49,91.56,0,120.37,14.72,95.41,54.1,176.41,118.77,244.28C250.72,871.85,338.76,917,439.61,932.68c29.14,4.48,91.56,4.48,120.7,0,99.24-15,181.2-56.35,250.36-125.18S920.8,656.39,935.84,557.14c4.49-29.13,4.49-91.56,0-120.69a465.3,465.3,0,0,0-50.9-152.39A441.58,441.58,0,0,0,562.23,61.23C539.5,57.71,481.55,56.43,459.78,58.67ZM561.27,94.21c204.89,32,353.44,211.62,345.44,417.15a372.12,372.12,0,0,1-12.17,86.12c-20.16,80.68-68.51,157.84-131.9,210a408.8,408.8,0,0,1-203.29,92.2c-27.86,4.49-90.92,4.49-118.78,0-222.5-33-376.17-240.11-343.2-462.93,1-7.37,2.56-14.73,3.84-22.09C137.39,243.08,278.26,113.42,452.1,92.29,476.75,89.09,536,90.05,561.27,94.21Z" transform="translate(-29.74 -22.82)"/><path class="cls-4" d="M463.94,89.73c-136.38,14.4-251.31,89-319.51,207.77-22.73,39.38-40.33,91.89-48,143.43-4.16,26.89-4.16,84.84,0,112.05,13.45,88.68,50.26,163.92,110.45,226.67,63.07,66,144.71,107.57,238.51,122,26.9,4.17,84.84,4.17,112.06,0,92.2-13.76,168.4-52.18,232.43-116.21S892.3,644.86,906.39,553c4.16-26.89,4.16-84.84,0-112a429.4,429.4,0,0,0-47.7-141.83,409.77,409.77,0,0,0-300-206.81C537.58,89.09,483.79,87.8,463.94,89.73Zm94.13,33c190.17,29.77,328.15,196.57,320.79,387.7a340.42,340.42,0,0,1-11.53,80c-18.89,74.91-63.71,146.63-122.62,195.29a380.82,380.82,0,0,1-188.88,85.8c-25.94,4.16-84.52,4.16-110.14,0-206.81-30.73-349.28-223.46-318.54-430,1-7,2.24-13.77,3.84-20.81C164.28,261.65,295.22,141,456.58,121.1c23.05-2.88,77.8-1.92,101.49,1.6Z" transform="translate(-29.74 -22.82)"/><path id="rect4" class="cls-5" d="M373.92,607.84s0,0-.05,0l-2.06,2.79a7.94,7.94,0,0,0-1.87,5.53c0,2.5-.21,3-1.27,3.16a2.82,2.82,0,0,0-1.88,1.57c-.46,1-1.35,1.48-3.58,1.79a7.8,7.8,0,0,0-3.91,1.47c-.55.63-1.06,3.06-1.27,6.05-.2,2.74-.66,5.29-1,5.66-.93.93-.85,2.31.27,4.46a8.29,8.29,0,0,1,.94,2.92c0,2,1.82,5.5,3.37,6.52,1.3.85,1.57,1.66,1.88,5.64.48,5.93,1.41,8.5,3.52,9.6,3.8,2,4.94,2.73,6.69,4.38a6.73,6.73,0,0,0,2.59,1.74c1.08,0,4.75,5.35,4.75,6.91,0,.76.42,1.33,1,1.33a1,1,0,0,1,.95,1,1.64,1.64,0,0,0,1.11,1.36,4.15,4.15,0,0,1,.59.28H660.2a7.4,7.4,0,0,1,1.86-2.92,11.64,11.64,0,0,0,2.44-4c1.67-7.29,3.7-10.28,7-10.28a4,4,0,0,0,2.39-.52c.57-.93,7.36-.88,8.82.06,1.74,1.12,4.22,1.76,4.22,1.1a5.84,5.84,0,0,1,1.62-2c3.3-3.05,5.21-8.69,4-11.78-.79-2-1.28-6.7-1.17-11.13l.07-3.08-3.68.2a13.59,13.59,0,0,1-4.34-.21,49.45,49.45,0,0,0-7.6-1.16c-3.81-.41-7.37-1.09-7.89-1.52-1.46-1.22-5.13-2.89-6.37-2.89-.81,0-1.31-.88-1.88-3.32-1.44-6.09-2.44-8-4.52-8.42a3.17,3.17,0,0,0-3.27.83c-1.51,1.37-5.36,2.3-7,1.67a1.93,1.93,0,0,1-1-1.71c0-1.61-2.36-4.25-3.8-4.25a3.61,3.61,0,0,0-2.15,1.21c-.91,1-1.89,1.17-6.11,1.08-4.78-.11-5.11-.21-7.23-2.27-1.3-1.26-2.23-2.79-2.23-3.65,0-1.81-1.64-2.54-3.33-1.48-1.4.88-6.81.44-9.19-.74a2.85,2.85,0,0,0-2.84,0,20.33,20.33,0,0,1-5.14,1c-2.05.18-4.19.76-4.8,1.31a3.78,3.78,0,0,1-1.73,1,3.49,3.49,0,0,0-1.71,1.19,7.68,7.68,0,0,1-4.24,1.54,15.12,15.12,0,0,0-3.9.85,11.52,11.52,0,0,1-3.72.49,6.53,6.53,0,0,0-4.29,1.23c-1,.9-1.83,1.09-3.51.77a6.27,6.27,0,0,0-3.36.2C567.78,621.94,565,623,564,623a2,2,0,0,0-1.52.64,1.9,1.9,0,0,1-1.48.63c-.61,0-2.22,1.15-3.58,2.54s-2.85,2.52-3.32,2.52a1.54,1.54,0,0,0-1.21,1.11c-.36,1.07-1.49,2.35-8.32,9.39a46.6,46.6,0,0,0-3.69,4.13,6.92,6.92,0,0,1-4.34,2.48,21.09,21.09,0,0,0-4.58,1.67,23.47,23.47,0,0,1-6.44,1.88,9.41,9.41,0,0,0-3.49.78,8,8,0,0,1-2.42,1c-1.38.33-2.23,0-4.53-2-3-2.63-8.1-4.06-9.48-2.67-1.12,1.11-2.75.79-4.84-1-1.63-1.37-2.36-1.59-4.32-1.25-1.3.22-4.72.53-7.6.68-4.9.26-6.64,0-9-1.55a37.53,37.53,0,0,0-3.37-1.67,5.22,5.22,0,0,0-4.9-.25,9.78,9.78,0,0,0-3.54,2,3.56,3.56,0,0,1-2.12,1.17,2.54,2.54,0,0,0-1.54.47,19.92,19.92,0,0,1-5,1.18c-3.58.54-4.85.51-6.13-.17a16.4,16.4,0,0,0-3.83-1.24,8.4,8.4,0,0,1-3.17-1.19,9.86,9.86,0,0,0-3.67-1.2,51.07,51.07,0,0,1-12.25-4c-1.66-1-2.41-.86-4.46.61-1.14.82-3,.17-6.14-2.16a6,6,0,0,0-3-1.13,2.58,2.58,0,0,1-1.78-.5c-.39-.63-9.63-.6-10.27,0a2.75,2.75,0,0,1-1.63.46,6,6,0,0,0-2.27.57c-4.77,2.42-8,2.8-10.76,1.25a9.08,9.08,0,0,0-3.22-1.19c-2.57,0-3.34-1.37-2.9-5.18.33-2.81.69-3.65,1.66-3.9a2.5,2.5,0,0,0,1.58-1.63,1.68,1.68,0,0,1,1.76-1.32c2.14,0,4.77-2.34,4.77-4.26,0-2.44-1.71-4-4.44-4a4.53,4.53,0,0,1-3.48-1.27,3.93,3.93,0,0,0-1.77-1.27,10.91,10.91,0,0,1-3.07-2.21c-1.35-1.22-2.93-2.22-3.51-2.22a4.17,4.17,0,0,1-2.22-1.05,2.91,2.91,0,0,0-1.28-.82Z" transform="translate(-29.74 -22.82)"/><path id="rect6" class="cls-6" d="M384.47,681.91a22.27,22.27,0,0,1,2.78,1.76c1.9,1.41,2.07,1.78,1.69,3.78-.5,2.71-1.61,4.6-2.71,4.6A1.58,1.58,0,0,0,385,693.1a14,14,0,0,1-2.84,3.23c-1.9,1.73-2.41,2.67-2.41,4.36s-.51,2.61-2.06,4c-2.35,2.13-5.74,3.06-7.09,1.93-2.21-1.83-11.13,3.36-11.13,6.47a10.53,10.53,0,0,0,1.42,3.62c1.37,2.38,1.38,2.49.24,3.75a2.92,2.92,0,0,0-.78,2.87,11.2,11.2,0,0,1-.36,4.42l-.76,2.83,3,3.25c2.12,2.27,2.85,3.46,2.42,4a8.93,8.93,0,0,0-1.06,2.85,5.5,5.5,0,0,1-2,3.07c-.84.55-1.53,1.36-1.53,1.8s-1.11,1-2.45,1.19a6.46,6.46,0,0,0-3.26,1.36c-.68.82-.54,1.27.87,2.74a7.13,7.13,0,0,1,1.67,2.28,12.89,12.89,0,0,0,2.24,2.94h299c-6.27-6.6-6.35-7.3-5.17-9.09.92-1.41.91-1.59-.12-2.47a8.35,8.35,0,0,0-2.18-1.34c-.68-.24-1-1-1-2.19.07-2.48-1.29-5-2.22-4s-1.94.95-1.44.14c1.18-1.91-6.21-3.21-7.67-1.34-1.12,1.43-1.81.22-.86-1.54a5.86,5.86,0,0,0,.46-3.41c-.35-1.77-.25-1.88,2.15-2.2,3.32-.45,4.38-1.41,4.38-4,0-1.35.3-2.13.83-2.13a12,12,0,0,0,3.25-1.18c1.89-.92,2.18-1.25,1.33-1.57a1.42,1.42,0,0,1-.85-1.53c.18-.93.92-1.12,4.63-1.12h4.42l.07-2.84a19.87,19.87,0,0,0-.53-4.93,6.23,6.23,0,0,1-.16-3.18c.58-1.43.59-6.12,0-9.5-.31-1.83-.2-3,.32-3.64,1-1.19,2-5.51,2.1-9a7.49,7.49,0,0,1,.29-2.07Z" transform="translate(-29.74 -22.82)"/><path id="rect8" class="cls-7" d="M359.14,756l.34.38c1.4,1.51,2.54,3.27,2.54,3.91,0,2,3.51,4.9,9.31,7.73a11.75,11.75,0,0,1,3,1.92,3,3,0,0,0,2.13.62,9.66,9.66,0,0,1,3.44.79c1.56.72,1.71,1.1,1.71,4.39,0,2,.28,3.78.63,4a2.42,2.42,0,0,1,.64,1.81,3.82,3.82,0,0,0,1.27,2.48,3.9,3.9,0,0,1,1.26,2.55c0,2.13,1.44,4.87,2.55,4.88a2.71,2.71,0,0,1,1.77,1.33c.75,1.2.59,1.64-1.73,4.4-2.76,3.27-3.38,6.13-1.63,7.58.59.49.74,1.07.4,1.51-.76,1-.76,6.86,0,7.77.39.48.37.89-.06,1.15a3.1,3.1,0,0,0-.66,2.19,3.81,3.81,0,0,1-.95,2.58c-1.15,1-1.26,3.73-.16,4.1a74.8,74.8,0,0,0,7.84.56c7.71.31,9.92-.26,10.25-2.62a4.14,4.14,0,0,1,1.57-2.36c1.25-.88,1.4-.85,1.84.33.78,2.12,2.36,2.24,4.14.32,1.36-1.46,2-1.68,3.86-1.37a4.78,4.78,0,0,0,3-.31c.59-.49,1.33-.31,2.69.66,2.46,1.75,5.5,1.75,6.44,0,.61-1.16,1.08-1.29,3.48-.93s2.89.23,3.58-.88a2.81,2.81,0,0,1,2-1.31,6.69,6.69,0,0,0,2.95-1.25c1.51-1.07,1.83-1.12,2.14-.32.53,1.39,3.39,1.17,4.19-.32.56-1,.89-1.13,1.85-.54a2.89,2.89,0,0,0,2.27.31c.9-.35,1.06-1,.8-3.27l-.32-2.83h3c1.9,0,3.31-.35,3.81-1a3.52,3.52,0,0,1,2.44-.94c1.44,0,1.52.11.56.67-1.39.81-1.41,2.36-.05,3.86s2.74,1.44,5.53-.85c2.16-1.78,2.49-1.89,3-1,.75,1.35,2.95,1.35,4.43,0,.93-.84,1.33-.89,2.11-.24a2.6,2.6,0,0,1,1,1.58,3.92,3.92,0,0,0,1.34,2,8.44,8.44,0,0,1,1.89,2.67c.32.83.87,1.29,1.26,1.05,1-.61,3.54.82,7.13,4a16.48,16.48,0,0,0,3.65,2.69c.31,0,.56-1,.56-2.13,0-2.11,0-2.13,2.69-2a11,11,0,0,1,4,.81,14.44,14.44,0,0,0,3.62,1.15,6.45,6.45,0,0,1,3.07,1.32,2.75,2.75,0,0,0,1.85.88c.6,0,2.91,1.7,5.14,3.77l4,3.77,3.49-.36a12.46,12.46,0,0,0,4.09-.91,2.77,2.77,0,0,1,1.65-.56,2.83,2.83,0,0,0,1.86-1,3.72,3.72,0,0,1,2.54-.95c1,0,1.9-.37,2.08-.83.35-.91,6.21-1,8.23-.15a2.07,2.07,0,0,0,2.27-.53,4,4,0,0,1,1.67-1,5.55,5.55,0,0,0,2-1.37L547,821l1.88,1.8c1.83,1.75,1.95,1.79,4.59,1A14,14,0,0,0,557.2,822a3.39,3.39,0,0,1,3-.48c1.09.24,2.05.12,2.29-.26a2.07,2.07,0,0,1,1.61-.67c.89,0,1.31-.61,1.6-2.38a16.7,16.7,0,0,1,1.08-3.79,1.92,1.92,0,0,0-.41-2.63c-.79-.87-.88-1.33-.35-1.66.7-.43.64-1.48-.37-6.41a11.32,11.32,0,0,0-2.89-4.41c-2.57-2.51-3.33-5.33-1.45-5.33a5.75,5.75,0,0,0,2.6-1.25,4.56,4.56,0,0,1,5.93.4,5.41,5.41,0,0,0,3,.85c2,0,2,0,2-3.28,0-4.77,1.53-6.21,6.56-6.21,4.87,0,6.1-1,6.1-5,0-2.22.38-3.26,1.62-4.55,1.42-1.49,2-1.66,4.74-1.39,2,.19,3.49,0,4.14-.52a9.41,9.41,0,0,1,4.18-1c5-.26,9.54-3,10.15-6.26.22-1.17.65-1.25,5.17-1.05,3.95.18,5.15,0,6.1-.85a2.55,2.55,0,0,1,2.66-.62c2.17.68,5,2.79,5,3.77s5.52,6,6.59,6c.39,0,1.06.58,1.49,1.27.89,1.42,3.64,1.72,4.13.44.17-.45,1.49-1.21,2.92-1.68a9.43,9.43,0,0,0,3.32-1.71,2.44,2.44,0,0,1,3.72.11c1.18,1.42,2.48,1.14,3.17-.66.79-2.08,2.29-2.61,3.71-1.32s5.32,1.32,6.68-.19c1-1.13,1-1.33,0-3.24a29.38,29.38,0,0,0-4-5.09c-2-2-3.52-3.64-4.86-5.06h-299l0,0Z" transform="translate(-29.74 -22.82)"/></svg>